<?xml version="1.0" encoding="UTF-8"?>
<svg xmlns="http://www.w3.org/2000/svg" xmlns:xlink="http://www.w3.org/1999/xlink" width="99pt" height="81pt" viewBox="0 0 99 81" version="1.1">
<g id="surface1">
<path style=" stroke:none;fill-rule:nonzero;fill:rgb(98.823529%,92.54902%,4.705882%);fill-opacity:1;" d="M 21.300781 1.617188 C 10.566406 1.617188 1.832031 10.410156 1.832031 21.21875 C 1.832031 24.246094 1.832031 48.46875 1.832031 51.492188 C 1.832031 60.117188 7.457031 67.628906 15.605469 70.035156 C 16.546875 70.984375 24.066406 78.554688 25.003906 79.503906 C 25.527344 80.027344 26.234375 80.324219 26.972656 80.324219 C 27.710938 80.324219 28.417969 80.027344 28.9375 79.503906 C 29.515625 78.925781 32.390625 76.03125 37.5625 70.816406 C 61.398438 70.816406 74.640625 70.816406 77.289062 70.816406 C 88.019531 70.816406 96.753906 62.023438 96.753906 51.214844 C 96.753906 48.214844 96.753906 24.21875 96.753906 21.21875 C 96.753906 10.410156 88.019531 1.617188 77.289062 1.617188 C 66.089844 1.617188 26.898438 1.617188 21.300781 1.617188 Z M 31.636719 38.363281 C 35.167969 38.363281 63.417969 38.363281 66.949219 38.363281 C 68.488281 38.363281 69.730469 39.621094 69.730469 41.167969 C 69.730469 42.710938 68.488281 43.964844 66.949219 43.964844 C 63.417969 43.964844 35.167969 43.964844 31.636719 43.964844 C 30.101562 43.964844 28.855469 42.710938 28.855469 41.167969 C 28.855469 39.621094 30.101562 38.363281 31.636719 38.363281 Z M 31.636719 34.066406 C 30.101562 34.066406 28.855469 32.8125 28.855469 31.269531 C 28.855469 29.722656 30.101562 28.464844 31.636719 28.464844 C 35.167969 28.464844 63.417969 28.464844 66.949219 28.464844 C 68.488281 28.464844 69.730469 29.722656 69.730469 31.269531 C 69.730469 32.8125 68.488281 34.066406 66.949219 34.066406 C 59.890625 34.066406 35.167969 34.066406 31.636719 34.066406 Z M 31.636719 34.066406 "/>
<path style=" stroke:none;fill-rule:nonzero;fill:rgb(98.823529%,92.54902%,4.705882%);fill-opacity:1;" d="M 24.941406 13.167969 L 75.113281 13.167969 L 75.113281 58.464844 L 24.941406 58.464844 Z M 24.941406 13.167969 "/>
<path style=" stroke:none;fill-rule:nonzero;fill:rgb(0%,0%,0%);fill-opacity:1;" d="M 46.324219 35.136719 C 46.984375 35.136719 47.523438 35.675781 47.527344 36.339844 C 47.53125 37.628906 48.035156 38.839844 48.941406 39.75 C 49.851562 40.65625 51.054688 41.15625 52.335938 41.152344 C 53.8125 41.148438 65.605469 41.109375 67.078125 41.105469 C 67.078125 41.101562 67.078125 41.105469 67.078125 41.105469 C 67.441406 41.101562 70.316406 41.09375 70.671875 41.09375 C 73.316406 41.082031 75.460938 38.910156 75.453125 36.25 C 75.445312 33.585938 73.285156 31.429688 70.644531 31.4375 C 69.707031 31.4375 62.222656 31.464844 61.289062 31.46875 C 61.050781 30.554688 60.746094 29.660156 60.375 28.785156 C 59.398438 26.488281 58.011719 24.429688 56.242188 22.664062 C 55.542969 21.960938 54.792969 21.320312 54.007812 20.742188 C 54.613281 20.664062 55.234375 20.625 55.863281 20.625 C 57.339844 20.617188 69.132812 20.582031 70.609375 20.574219 C 79.199219 20.546875 86.210938 27.5625 86.238281 36.214844 C 86.253906 40.539062 84.519531 44.46875 81.707031 47.316406 C 78.894531 50.167969 75.007812 51.941406 70.710938 51.953125 C 69.234375 51.957031 57.441406 51.996094 55.96875 52.003906 C 47.378906 52.03125 40.363281 45.015625 40.335938 36.363281 C 40.335938 35.949219 40.34375 35.546875 40.355469 35.15625 C 41.550781 35.152344 45.726562 35.140625 46.324219 35.136719 Z M 46.324219 35.136719 "/>
<path style=" stroke:none;fill-rule:nonzero;fill:rgb(0%,0%,0%);fill-opacity:1;" d="M 27.9375 20.714844 C 29.414062 20.710938 41.207031 20.671875 42.679688 20.667969 C 51.273438 20.636719 58.285156 27.652344 58.3125 36.304688 C 58.316406 36.710938 58.300781 37.113281 58.273438 37.511719 C 57.679688 37.511719 52.917969 37.53125 52.324219 37.53125 C 52 37.53125 51.707031 37.410156 51.476562 37.179688 C 51.246094 36.949219 51.125 36.65625 51.125 36.328125 C 51.113281 33.667969 48.957031 31.507812 46.3125 31.515625 C 44.480469 31.523438 29.808594 31.570312 27.976562 31.578125 C 26.695312 31.582031 25.492188 32.089844 24.589844 33.003906 C 23.6875 33.917969 23.191406 35.132812 23.195312 36.421875 C 23.207031 39.082031 25.363281 41.242188 28.007812 41.234375 C 28.941406 41.230469 36.429688 41.207031 37.363281 41.203125 C 37.597656 42.113281 37.90625 43.007812 38.277344 43.886719 C 39.25 46.179688 40.640625 48.242188 42.40625 50.007812 C 43.109375 50.707031 43.855469 51.351562 44.644531 51.929688 C 44.03125 52.003906 43.410156 52.042969 42.785156 52.046875 C 41.308594 52.050781 29.515625 52.089844 28.042969 52.09375 C 19.453125 52.125 12.4375 45.109375 12.410156 36.457031 C 12.382812 27.804688 19.347656 20.746094 27.9375 20.714844 Z M 27.9375 20.714844 "/>
</g>
</svg>
